# xmcd CD database file
#
# Track frame offsets:
#	150
#	14586
#	30963
#	44002
#	58391
#	72554
#	85908
#	100741
#	119137
#	139455
#	157855
#	169441
#	187668
#
# Disc length: 2722 seconds
#
# Revision: 0
# Processed by: cddbd v1.5.2PL0 Copyright (c) Steve Scherf et al.
# Submitted via: CDex 1.70
#
DISCID=bb0aa00d
DTITLE=Thomas Michael Riley - Between The Tic 'N The Tock
DYEAR=1900
DGENRE=Country
TTITLE0=No Thanks
TTITLE1=Between The Tic 'N The Tock
TTITLE2=Uncle Buc
TTITLE3=Force In The House
TTITLE4=Holler 'N Swoller
TTITLE5=Next Time
TTITLE6=Outward Bound
TTITLE7=Willin'
TTITLE8=I Stood Up
TTITLE9=While You're Dancin'
TTITLE10=Tequila Memory
TTITLE11=Good Old Boys Like Me
TTITLE12=Dig A Hole
EXTD=
EXTT0=
EXTT1=
EXTT2=
EXTT3=
EXTT4=
EXTT5=
EXTT6=
EXTT7=
EXTT8=
EXTT9=
EXTT10=
EXTT11=
EXTT12=
PLAYORDER=
